# This file uses centimeters as units for non-parametric coordinates.

mtllib skybox.mtl
g default
v -1000.000000 -1000.000000 1000.000000
v 1000.000000 -1000.000000 1000.000000
v -1000.000000 1000.000000 1000.000000
v 1000.000000 1000.000000 1000.000000
v -1000.000000 1000.000000 -1000.000000
v 1000.000000 1000.000000 -1000.000000
v -1000.000000 -1000.000000 -1000.000000
v 1000.000000 -1000.000000 -1000.000000
vt 0.250660 0.665256
vt 0.250660 0.334187
vt 0.497400 0.665256
vt 0.500215 0.334187
vt 0.251787 0.334395
vt 0.251787 0.004562
vt 0.499746 0.334395
vt 0.499746 0.004562
vt 0.999326 0.334187
vt 0.999326 0.665256
vt 0.749770 0.334187
vt 0.749770 0.665256
vt 0.251877 0.998803
vt 0.251877 0.665693
vt 0.499122 0.998803
vt 0.499122 0.998803
vt 0.251877 0.665693
vt 0.499122 0.665693
vt 0.001104 0.665256
vt 0.001104 0.334187
vn 0.577350 0.577350 -0.577350
vn 0.577350 -0.577350 -0.577350
vn -0.577350 0.577350 -0.577350
vn -0.577350 0.577350 -0.577350
vn 0.577350 -0.577350 -0.577350
vn -0.577350 -0.577350 -0.577350
vn 0.577350 -0.577350 -0.577350
vn 0.577350 -0.577350 0.577350
vn -0.577350 -0.577350 -0.577350
vn -0.577350 -0.577350 -0.577350
vn 0.577350 -0.577350 0.577350
vn -0.577350 -0.577350 0.577350
vn 0.577350 -0.577350 0.577350
vn 0.577350 0.577350 0.577350
vn -0.577350 -0.577350 0.577350
vn -0.577350 -0.577350 0.577350
vn 0.577350 0.577350 0.577350
vn -0.577350 0.577350 0.577350
vn 0.577350 0.577350 0.577350
vn 0.577350 0.577350 -0.577350
vn -0.577350 0.577350 0.577350
vn -0.577350 0.577350 0.577350
vn 0.577350 0.577350 -0.577350
vn -0.577350 0.577350 -0.577350
vn -0.577350 0.577350 -0.577350
vn -0.577350 -0.577350 -0.577350
vn -0.577350 0.577350 0.577350
vn -0.577350 0.577350 0.577350
vn -0.577350 -0.577350 -0.577350
vn -0.577350 -0.577350 0.577350
vn 0.577350 0.577350 0.577350
vn 0.577350 -0.577350 0.577350
vn 0.577350 0.577350 -0.577350
vn 0.577350 0.577350 -0.577350
vn 0.577350 -0.577350 0.577350
vn 0.577350 -0.577350 -0.577350
s off
g skybox:pCube1
usemtl skybox:initialShadingGroup
f 1/1/1 3/2/2 2/3/3
f 2/3/4 3/2/5 4/4/6
f 3/5/7 5/6/8 4/7/9
f 4/7/10 5/6/11 6/8/12
f 5/9/13 7/10/14 6/11/15
f 6/11/16 7/10/17 8/12/18
f 7/13/19 1/14/20 8/15/21
f 8/16/22 1/17/23 2/18/24
f 2/3/25 4/4/26 8/12/27
f 8/12/28 4/4/29 6/11/30
f 7/19/31 5/20/32 1/1/33
f 1/1/34 5/20/35 3/2/36
